<svg xmlns="http://www.w3.org/2000/svg" xmlns:xlink="http://www.w3.org/1999/xlink"
version="1.1" width="64" height="64" viewBox="0 0 100 100"  xml:space="preserve">

<defs>
</defs>
<g style="stroke: none; stroke-width: 0; stroke-dasharray: none; stroke-linecap: butt; stroke-linejoin: miter; stroke-miterlimit: 10; fill: none; fill-rule: nonzero; opacity: 1;" transform="translate(15,15),scale(0.8)" >
	<path d="M 82.688 45 l 6.738 -6.738 c 0.764 -0.764 0.764 -2.003 0 -2.766 c -0.764 -0.764 -2.002 -0.764 -2.766 0 l -7.549 7.548 H 71.78 l 2.595 -2.595 c 0.764 -0.764 0.764 -2.003 0 -2.767 c -0.764 -0.763 -2.004 -0.764 -2.766 0 l -5.361 5.362 H 54.392 c -0.249 -1.195 -0.724 -2.307 -1.373 -3.295 l 8.388 -8.388 h 7.583 c 1.08 0 1.956 -0.876 1.956 -1.957 c 0 -1.081 -0.876 -1.957 -1.956 -1.957 h -3.67 l 5.183 -5.183 h 10.675 c 1.08 0 1.956 -0.876 1.956 -1.957 c 0 -1.081 -0.876 -1.957 -1.956 -1.957 H 71.65 V 8.821 c 0 -1.081 -0.876 -1.957 -1.956 -1.957 s -1.956 0.876 -1.956 1.957 v 10.675 l -5.185 5.185 V 21.01 c 0 -1.081 -0.876 -1.957 -1.956 -1.957 s -1.956 0.876 -1.956 1.957 v 7.584 l -8.388 8.388 c -0.988 -0.65 -2.101 -1.125 -3.297 -1.374 V 23.753 l 5.362 -5.362 c 0.764 -0.764 0.764 -2.003 0 -2.767 c -0.764 -0.763 -2.004 -0.764 -2.766 0 l -2.595 2.595 v -7.331 l 7.549 -7.549 c 0.764 -0.764 0.764 -2.003 0 -2.766 c -0.764 -0.764 -2.002 -0.764 -2.766 0 L 45 7.312 l -6.738 -6.738 c -0.763 -0.764 -2.003 -0.764 -2.766 0 c -0.764 0.764 -0.764 2.003 0 2.766 l 7.548 7.549 v 7.331 l -2.595 -2.595 c -0.763 -0.764 -2.003 -0.764 -2.766 0 c -0.764 0.764 -0.764 2.003 0 2.766 l 5.362 5.362 v 11.855 c -1.196 0.249 -2.308 0.724 -3.296 1.373 l -8.388 -8.388 V 21.01 c 0 -1.081 -0.876 -1.957 -1.957 -1.957 c -1.081 0 -1.957 0.876 -1.957 1.957 v 3.671 l -5.183 -5.183 V 8.821 c 0 -1.081 -0.876 -1.957 -1.957 -1.957 c -1.081 0 -1.957 0.876 -1.957 1.957 v 9.529 H 8.821 c -1.081 0 -1.957 0.876 -1.957 1.957 c 0 1.081 0.876 1.957 1.957 1.957 h 10.675 l 5.184 5.183 h -3.67 c -1.081 0 -1.957 0.876 -1.957 1.957 c 0 1.081 0.876 1.957 1.957 1.957 h 7.584 l 8.388 8.388 c -0.65 0.988 -1.125 2.1 -1.373 3.296 H 23.752 l -5.362 -5.362 c -0.763 -0.764 -2.003 -0.764 -2.766 0 c -0.764 0.764 -0.764 2.003 0 2.766 l 2.595 2.595 h -7.331 L 3.34 35.496 c -0.763 -0.764 -2.003 -0.764 -2.766 0 c -0.764 0.764 -0.764 2.003 0 2.766 L 7.312 45 l -6.738 6.738 c -0.764 0.763 -0.764 2.003 0 2.766 c 0.382 0.382 0.883 0.573 1.383 0.573 s 1.001 -0.191 1.383 -0.573 l 7.549 -7.549 h 7.331 l -2.595 2.595 c -0.764 0.763 -0.764 2.003 0 2.766 c 0.382 0.382 0.883 0.573 1.384 0.573 c 0.501 0 1.001 -0.191 1.383 -0.573 l 5.362 -5.362 h 11.855 c 0.249 1.196 0.724 2.308 1.374 3.297 l -8.388 8.388 h -7.584 c -1.081 0 -1.957 0.876 -1.957 1.956 s 0.876 1.956 1.957 1.956 h 3.672 l -5.185 5.185 H 8.821 c -1.081 0 -1.957 0.876 -1.957 1.956 S 7.74 71.65 8.821 71.65 h 9.529 v 9.529 c 0 1.08 0.876 1.956 1.957 1.956 c 1.081 0 1.957 -0.876 1.957 -1.956 V 70.504 l 5.183 -5.183 v 3.67 c 0 1.08 0.876 1.956 1.957 1.956 c 1.081 0 1.957 -0.876 1.957 -1.956 v -7.583 l 8.388 -8.388 c 0.988 0.649 2.1 1.124 3.295 1.373 v 11.856 l -5.362 5.361 c -0.764 0.763 -0.764 2.003 0 2.766 c 0.382 0.382 0.883 0.573 1.384 0.573 c 0.501 0 1.001 -0.191 1.383 -0.573 l 2.595 -2.595 v 7.331 l -7.548 7.549 c -0.764 0.763 -0.764 2.003 0 2.766 C 35.877 89.809 36.378 90 36.879 90 c 0.501 0 1.001 -0.191 1.383 -0.573 L 45 82.689 l 6.738 6.738 C 52.12 89.809 52.621 90 53.121 90 c 0.501 0 1.001 -0.191 1.383 -0.573 c 0.764 -0.763 0.764 -2.003 0 -2.766 l -7.549 -7.549 V 71.78 l 2.595 2.595 c 0.382 0.382 0.883 0.573 1.383 0.573 s 1.001 -0.191 1.383 -0.573 c 0.764 -0.763 0.764 -2.003 0 -2.766 l -5.362 -5.362 V 54.392 c 1.196 -0.249 2.308 -0.724 3.296 -1.373 l 8.388 8.388 v 7.583 c 0 1.08 0.876 1.956 1.956 1.956 s 1.956 -0.876 1.956 -1.956 V 65.32 l 5.185 5.185 v 10.675 c 0 1.08 0.876 1.956 1.956 1.956 s 1.956 -0.876 1.956 -1.956 V 71.65 h 9.529 c 1.08 0 1.956 -0.876 1.956 -1.956 s -0.876 -1.956 -1.956 -1.956 H 70.504 l -5.185 -5.185 h 3.671 c 1.08 0 1.956 -0.876 1.956 -1.956 s -0.876 -1.956 -1.956 -1.956 h -7.583 l -8.388 -8.388 c 0.649 -0.988 1.125 -2.101 1.373 -3.296 h 11.855 l 5.362 5.362 c 0.382 0.382 0.883 0.573 1.383 0.573 c 0.501 0 1.001 -0.191 1.383 -0.573 c 0.764 -0.763 0.764 -2.003 0 -2.766 l -2.595 -2.595 h 7.332 l 7.549 7.549 c 0.382 0.382 0.883 0.573 1.383 0.573 s 1.001 -0.191 1.383 -0.573 c 0.764 -0.763 0.764 -2.003 0 -2.766 L 82.688 45 z M 45 50.682 c -3.133 0 -5.681 -2.549 -5.681 -5.682 c 0 -3.133 2.548 -5.681 5.681 -5.681 c 3.132 0 5.682 2.548 5.682 5.681 C 50.682 48.132 48.132 50.682 45 50.682 z" style="stroke: none; stroke-width: 1; stroke-dasharray: none; stroke-linecap: butt; stroke-linejoin: miter; stroke-miterlimit: 10; fill: #fff; fill-rule: nonzero; opacity: 1;" transform=" matrix(1 0 0 1 0 0) " stroke-linecap="round" />
</g>
</svg>